<svg xmlns="http://www.w3.org/2000/svg" version="1.1" xmlns:xlink="http://www.w3.org/1999/xlink" xmlns:svgjs="http://svgjs.dev/svgjs" width="1000" height="1000" viewBox="0 0 1000 1000"><rect width="1000" height="1000" fill="#000000"></rect><g transform="matrix(0.7,0,0,0.7,150.6509642392328,150.28340080971662)"><svg viewBox="0 0 247 247" data-background-color="#161618" preserveAspectRatio="xMidYMid meet" height="1000" width="1000" xmlns="http://www.w3.org/2000/svg" xmlns:xlink="http://www.w3.org/1999/xlink"><g id="tight-bounds" transform="matrix(1,0,0,1,-0.22969738155785535,-0.09999999999999432)"><svg viewBox="0 0 247.45939378205193 247.2" height="247.2" width="247.45939378205193"><g><svg viewBox="0 0 395.52 395.10540499469766" height="247.2" width="247.45939378205193"><g transform="matrix(1,0,0,1,0,266.01484348318286)"><svg viewBox="0 0 395.52 129.0905615115148" height="129.0905615115148" width="395.52"><g id="textblocktransform"><svg viewBox="0 0 395.52 129.0905615115148" height="129.0905615115148" width="395.52" id="textblock"><g><svg viewBox="0 0 395.52 79.78028319529788" height="79.78028319529788" width="395.52"><g transform="matrix(1,0,0,1,0,0)"><svg width="395.52" viewBox="2 -37.54999923706055 187.1300048828125 37.75" height="79.78028319529788" data-palette-color="#ffffff"><path d="M9.1 0.2L9.1 0.2Q2.45 0.2 2.05-5.05L2.05-5.05Q2-5.4 2-5.75L2-5.75Q2-9.95 7.05-11.35L7.05-11.35Q9.85-12.05 17.85-12.95L17.85-12.95 17.85-16.8Q17.85-22.25 12.15-22.25L12.15-22.25Q8.05-22.2 3.45-20.35L3.45-20.35 2.6-22.5 3.1-22.7Q7-24.4 9.05-24.75 11.1-25.1 12.05-25.13 13-25.15 13.88-25.1 14.75-25.05 16.15-24.65 17.55-24.25 18.57-23.53 19.6-22.8 20.35-21.35 21.1-19.9 21.1-17.9L21.1-17.9 21.1-2.5 24.95-2.5 24.95 0 18.35 0 17.85-1.9Q13.35 0.2 9.1 0.2ZM10-2.1L10-2.1Q13.8-2.1 17.85-3.8L17.85-3.8 17.85-10.95Q10.35-10.7 8.15-9.95L8.15-9.95Q6.45-9.5 5.75-8.33 5.05-7.15 5.05-6.45 5.05-5.75 5.05-5.5L5.05-5.5Q5.2-3.7 6.6-2.9 8-2.1 10-2.1ZM30.3-22.5L26.95-22.5 26.95-25 33.55-25 33.55-22.2Q37.65-25 41.4-25.15L41.4-25.15Q45.05-25.15 46.95-23.7L46.95-23.7Q47.8-23.05 48.47-21.68 49.15-20.3 49.15-18.4L49.15-18.4 49.15-2.5 53-2.5 53 0 42.9 0 42.9-2.5 45.9-2.5 45.9-17.15Q45.9-22 40.2-22L40.2-22Q37.1-21.9 33.55-19.95L33.55-19.95 33.55-2.5 37.3-2.5 37.3 0 27.2 0 27.2-2.5 30.3-2.5 30.3-22.5ZM65.35-2.45L65.35-2.45 67.3-2.55 67.45-0.55Q67.4-0.55 66.75-0.4L66.75-0.4Q65.25-0.05 63.4-0.05L63.4-0.05Q61.7-0.15 60.3-0.63 58.9-1.1 57.7-2.63 56.5-4.15 56.5-6.55L56.5-6.55 56.5-22.1 53.95-22.1 54.35-24.5 56.55-24.95 56.95-29.75 59.75-30 59.75-25 65.8-25 65.8-22.1 59.75-22.1 59.75-7.4Q59.75-2.45 65.35-2.45ZM73.24-22.5L69.89-22.5 69.89-25 76.49-25 76.49-2.5 80.24-2.5 80.24 0 70.14 0 70.14-2.5 73.24-2.5 73.24-22.5ZM74.79-31.7Q73.79-31.7 73.24-32.33 72.69-32.95 72.69-33.98 72.69-35 73.27-35.63 73.84-36.25 74.84-36.25 75.84-36.25 76.47-35.63 77.09-35 77.09-33.93 77.09-32.85 76.44-32.27 75.79-31.7 74.79-31.7ZM101.94-32.25L99.24-32.25 99.24-35 108.94-35 108.94-32.25 105.74-32.25 95.59-18.55 108.04-2.75 111.84-2.75 111.84 0 110.24 0 106.39 0.05 91.89-18.3 101.94-32.25ZM95.34-32.25L91.89-32.25 91.89-2.75 95.34-2.75 95.34 0 85.24 0 85.24-2.75 88.49-2.75 88.49-32.25 85.24-32.25 85.24-35 95.34-35 95.34-32.25ZM120.14-16.75L120.14-2.5 124.29-2.5 124.29 0 113.79 0 113.79-2.5 116.89-2.5 116.89-22.5 113.54-22.5 113.54-25 120.14-25 120.14-18.95Q124.09-24.75 127.89-24.85L127.89-24.85Q128.19-24.85 128.49-24.85L128.49-24.85 131.29-24.5 129.99-21.5Q129.04-21.95 127.54-21.95L127.54-21.95Q123.94-21.9 120.14-16.75L120.14-16.75ZM141.39 0.2L141.39 0.2Q134.74 0.2 134.34-5.05L134.34-5.05Q134.29-5.4 134.29-5.75L134.29-5.75Q134.29-9.95 139.34-11.35L139.34-11.35Q142.14-12.05 150.14-12.95L150.14-12.95 150.14-16.8Q150.14-22.25 144.44-22.25L144.44-22.25Q140.34-22.2 135.74-20.35L135.74-20.35 134.89-22.5 135.39-22.7Q139.29-24.4 141.34-24.75 143.39-25.1 144.34-25.13 145.29-25.15 146.16-25.1 147.04-25.05 148.44-24.65 149.84-24.25 150.86-23.53 151.89-22.8 152.64-21.35 153.39-19.9 153.39-17.9L153.39-17.9 153.39-2.5 157.24-2.5 157.24 0 150.64 0 150.14-1.9Q145.64 0.2 141.39 0.2ZM142.29-2.1L142.29-2.1Q146.09-2.1 150.14-3.8L150.14-3.8 150.14-10.95Q142.64-10.7 140.44-9.95L140.44-9.95Q138.74-9.5 138.04-8.33 137.34-7.15 137.34-6.45 137.34-5.75 137.34-5.5L137.34-5.5Q137.49-3.7 138.89-2.9 140.29-2.1 142.29-2.1ZM161.83-31.05Q161.83-34.5 164.08-36.02 166.33-37.55 168.83-37.55 171.33-37.55 172.73-37L172.73-37 172.58-34.65Q171.38-34.8 170.51-34.8 169.63-34.8 168.81-34.63 167.98-34.45 167.08-34L167.08-34Q165.08-32.9 165.08-29.9L165.08-29.9 165.08-25 171.13-25 171.13-22.1 165.08-22.1 165.08-2.5 169.33-2.5 169.33 0 158.73 0 158.73-2.5 161.83-2.5 161.83-22.1 159.28-22.1 159.68-24.5 161.83-24.95 161.83-31.05ZM187.03-2.45L187.03-2.45 188.98-2.55 189.13-0.55Q189.08-0.55 188.43-0.4L188.43-0.4Q186.93-0.05 185.08-0.05L185.08-0.05Q183.38-0.15 181.98-0.63 180.58-1.1 179.38-2.63 178.18-4.15 178.18-6.55L178.18-6.55 178.18-22.1 175.63-22.1 176.03-24.5 178.23-24.95 178.63-29.75 181.43-30 181.43-25 187.48-25 187.48-22.1 181.43-22.1 181.43-7.4Q181.43-2.45 187.03-2.45Z" opacity="1" transform="matrix(1,0,0,1,0,0)" fill="#ffffff" class="undefined-text-0" data-fill-palette-color="primary" id="text-0"></path></svg></g></svg></g><g transform="matrix(1,0,0,1,0,98.61449333091103)"><svg viewBox="0 0 395.52 30.476068180603793" height="30.476068180603793" width="395.52"><g transform="matrix(1,0,0,1,0,0)"><svg width="395.52" viewBox="1 -37.45000076293945 615.8099975585938 47.45000076293945" height="30.476068180603793" data-palette-color="#ffffff"><path d="M34.5 0L24.4 0 24.4-2.75 27.45-2.75 25.15-9.25 9.75-9.25 7.5-2.75 11.1-2.75 11.1 0 1 0 1-2.75 4.3-2.75 15.95-35 19-35 31.05-2.75 34.5-2.75 34.5 0ZM24.25-11.75L17.3-31.2 10.6-11.75 24.25-11.75ZM57.3-32.25L54.1-32.25 54.1-35 60.95-35 80.85-4.5 80.65-32.25 77.4-32.25 77.4-35 86.95-35 86.95-32.25 83.8-32.25 83.8 0 80.15 0 60.2-30.5 60.4-2.75 64.2-2.75 64.2 0 54.1 0 54.1-2.75 57.3-2.75 57.3-32.25ZM122.79 0L112.74 0 112.74-2.75 115.99-2.75 115.99-32 108.64-32 108.09-27.4 105.64-27.8 106.24-35 129.04-35 129.69-27.8 127.19-27.4 126.59-32 119.14-32 119.14-2.75 122.79-2.75 122.79 0ZM152.99-32.25L149.69-32.25 149.69-35 159.79-35 159.79-32.25 156.39-32.25 156.39-2.75 159.79-2.75 159.79 0 149.69 0 149.69-2.75 152.99-2.75 152.99-32.25ZM180.74-17.4L180.74-17.4Q180.74-25.55 184.96-30.38 189.19-35.2 195.49-35.2L195.49-35.2Q210.24-35.2 210.24-17.4L210.24-17.4Q210.24-9.75 206.46-5.05 202.69-0.35 196.84 0.15L196.84 0.15Q198.24 5.1 204.74 9.7L204.74 9.7 201.79 10Q199.29 8.3 196.89 5.65 194.49 3 193.64 0.1L193.64 0.1Q180.74-0.9 180.74-17.4ZM184.14-17.5L184.14-17.5Q184.14-2.8 195.49-2.8L195.49-2.8Q200.39-2.8 203.61-6.7 206.84-10.6 206.84-17.5L206.84-17.5Q206.84-32.2 195.49-32.2L195.49-32.2Q190.59-32.2 187.36-28.28 184.14-24.35 184.14-17.5ZM234.08-32.25L230.83-32.25 230.83-35 240.93-35 240.93-32.25 237.48-32.25 237.48-15.05Q237.48-7.3 240.53-4.75L240.53-4.75Q241.98-3.5 243.48-3.03 244.98-2.55 246.98-2.55L246.98-2.55Q251.03-2.55 253.61-5.55 256.18-8.55 256.18-15.05L256.18-15.05 256.18-32.25 252.88-32.25 252.88-35 262.48-35 262.48-32.25 259.33-32.25 259.33-15Q259.33-7.15 255.88-3.48 252.43 0.2 246.98 0.2L246.98 0.2Q244.23 0.2 242.16-0.38 240.08-0.95 238.13-2.5L238.13-2.5Q234.08-5.65 234.08-15L234.08-15 234.08-32.25ZM287.03-32.25L283.98-32.25 283.98-35 305.23-35 305.18-34.7 305.83-27.8 303.33-27.4 302.73-32.25 290.43-32.25 290.43-18.85 301.33-18.85 301.33-22 304.08-22 304.08-13.4 301.33-13.4 301.33-16.1 290.43-16.1 290.43-2.75 304.08-2.75 304.83-9 307.28-8.75 306.53 0 283.98 0 283.98-2.75 287.03-2.75 287.03-32.25ZM337.43-2.95L337.43-2.95Q342.98-2.95 345.68-5.75L345.68-5.75Q347.23-7.35 347.23-9.55 347.23-11.75 346.15-13.18 345.08-14.6 343.38-15.38 341.68-16.15 339.6-16.73 337.53-17.3 335.45-17.95 333.38-18.6 331.68-19.5 329.98-20.4 328.9-22.05 327.83-23.7 327.83-26L327.83-26Q327.83-30 330.83-32.55 333.83-35.1 338.78-35.1 343.73-35.1 348.08-34.1L348.08-34.1 348.08-34.05 348.23-34.05 348.78-27.8 346.33-27.4 345.78-31.6Q342.98-32.1 339.6-32.1 336.23-32.1 333.73-30.63 331.23-29.15 331.23-26.45 331.23-23.75 333.23-22.35 335.23-20.95 338.08-20.23 340.93-19.5 343.78-18.6 346.63-17.7 348.63-15.5 350.63-13.3 350.63-9.7L350.63-9.7Q350.63-4.85 347.03-2.4 343.43 0.05 338.08 0.05L338.08 0.05Q331.33 0.05 326.78-3L326.78-3 326.83-8.3 329.28-8.55 329.38-4.75Q333.18-2.95 337.43-2.95ZM417.72 0.2L417.72 0.2Q404.37 0.2 404.37-11.45L404.37-11.45Q404.37-16.5 406.82-19.35 409.27-22.2 413.52-23.05L413.52-23.05Q410.77-27.35 410.77-30.03 410.77-32.7 413-35.08 415.22-37.45 419.62-37.45L419.62-37.45Q422.02-37.45 423.52-36.88 425.02-36.3 425.92-35.8 426.82-35.3 427.22-34.95L427.22-34.95Q428.77-33.7 428.82-33.7L428.82-33.7 427.02-31.7Q423.37-34.7 419.82-34.7L419.82-34.7Q416.37-34.7 415.12-32.7L415.12-32.7Q414.02-31.1 414.02-29.65L414.02-29.65Q414.02-26.25 418.97-20.38 423.92-14.5 430.82-8.15L430.82-8.15Q433.12-10.75 434.42-14.4L434.42-14.4Q434.42-15 433.82-15.1L433.82-15.1 430.72-15.1Q430.67-15.4 430.67-17.6L430.67-17.6 441.17-17.65Q441.17-17.6 441.22-16.4L441.22-16.4 441.22-15.15 437.72-15.15Q436.42-10.1 433.02-6.15L433.02-6.15Q433.77-5.5 437.12-2.6L437.12-2.6 441.22-2.6 441.17 0 435.72 0.05Q434.27-1.15 430.92-4.15L430.92-4.15Q425.72 0.2 417.72 0.2ZM407.62-11.48Q407.62-7.4 410.12-4.98 412.62-2.55 418.5-2.55 424.37-2.55 428.77-6.1L428.77-6.1Q419.92-14.25 415.22-20.55L415.22-20.55Q411.62-20.15 409.62-17.85 407.62-15.55 407.62-11.48ZM527.31 0L517.21 0 517.21-2.75 520.26-2.75 517.96-9.25 502.56-9.25 500.31-2.75 503.91-2.75 503.91 0 493.81 0 493.81-2.75 497.11-2.75 508.76-35 511.81-35 523.86-2.75 527.31-2.75 527.31 0ZM517.06-11.75L510.11-31.2 503.41-11.75 517.06-11.75ZM550.16-32.25L547.11-32.25 547.11-35 559.16-35Q564.31-35 567.11-32.75 569.91-30.5 569.91-26.05L569.91-26.05Q569.91-23.1 567.84-19.93 565.76-16.75 563.76-15.6L563.76-15.6 571.66-2.75 575.21-2.75 575.21 0 569.71 0 560.81-14.35 553.56-14.35 553.56-2.75 557.21-2.75 557.21 0 547.11 0 547.11-2.75 550.16-2.75 550.16-32.25ZM558.91-32.25L558.91-32.25 553.56-32.25 553.56-17.1 561.81-17.1Q566.51-21.4 566.51-25.75L566.51-25.75Q566.51-28.95 564.56-30.6 562.61-32.25 558.91-32.25ZM609.91 0L599.86 0 599.86-2.75 603.11-2.75 603.11-32 595.76-32 595.21-27.4 592.76-27.8 593.36-35 616.16-35 616.81-27.8 614.31-27.4 613.71-32 606.26-32 606.26-2.75 609.91-2.75 609.91 0Z" opacity="1" transform="matrix(1,0,0,1,0,0)" fill="#ffffff" class="undefined-text-1" data-fill-palette-color="secondary" id="text-1"></path></svg></g></svg></g></svg></g></svg></g><g transform="matrix(1,0,0,1,83.58678839402171,0)"><svg viewBox="0 0 228.34642321195656 228.34642321195656" height="228.34642321195656" width="228.34642321195656"><g><svg></svg></g><g id="icon-0"><svg viewBox="0 0 228.34642321195656 228.34642321195656" height="228.34642321195656" width="228.34642321195656"><g><path d="M0 114.173c0-63.056 51.117-114.173 114.173-114.173 63.056 0 114.173 51.117 114.173 114.173 0 63.056-51.117 114.173-114.173 114.173-63.056 0-114.173-51.117-114.173-114.173zM114.173 221.152c59.083 0 106.979-47.896 106.979-106.979 0-59.083-47.896-106.979-106.979-106.978-59.083 0-106.979 47.896-106.978 106.978 0 59.083 47.896 106.979 106.978 106.979z" data-fill-palette-color="accent" fill="#ffffff" stroke="transparent"></path><ellipse rx="113.0314794899185" ry="113.0314794899185" cx="114.17321160597828" cy="114.17321160597828" fill="#ffffff" stroke="transparent" stroke-width="0" fill-opacity="1" data-fill-palette-color="accent"></ellipse></g><g transform="matrix(1,0,0,1,70.27449792849907,47.16991178245739)"><svg viewBox="0 0 87.7974273549584 134.00659964704178" height="134.00659964704178" width="87.7974273549584"><g><svg xmlns="http://www.w3.org/2000/svg" xmlns:xlink="http://www.w3.org/1999/xlink" version="1.1" x="0" y="0" viewBox="13 3 38 58" style="enable-background:new 0 0 64 64;" xml:space="preserve" height="134.00659964704178" width="87.7974273549584" class="icon-s-0" data-fill-palette-color="quaternary" id="s-0"><path d="M46.295 53h-4.889c-2.648 0-5.247-0.508-7.684-1.467 0.072-0.045 0.147-0.083 0.219-0.129l0.19-0.121C37.507 49.135 41.406 48 45.406 48h4.125C48.745 49.825 47.656 51.514 46.295 53zM30.132 49.717l-0.19-0.121C26.245 47.243 21.975 46 17.594 46h-3.851c-0.194-0.655-0.351-1.322-0.47-2h37.454c-0.118 0.678-0.276 1.345-0.47 2h-4.851c-4.381 0-8.651 1.243-12.348 3.596l-0.19 0.121c-0.447 0.284-0.904 0.548-1.368 0.797C31.036 50.265 30.579 50.001 30.132 49.717zM13 40.869c0-0.292 0.029-0.579 0.042-0.869h37.915C50.971 40.29 51 40.577 51 40.869c0 0.379-0.014 0.756-0.038 1.131H13.038C13.014 41.625 13 41.248 13 40.869zM31.848 31.983L32 31.873l0.152 0.111C35.766 34.611 40.037 36 44.504 36h5.818c0.183 0.655 0.323 1.323 0.431 2H13.247c0.108-0.677 0.248-1.345 0.431-2h5.818C23.963 36 28.234 34.611 31.848 31.983zM49.647 34h-5.143c-3.855 0-7.542-1.156-10.711-3.323C36.727 28.925 40.049 28 43.504 28h2.082l0.143 0.143C47.434 29.848 48.754 31.836 49.647 34zM23.464 22.95C25.744 20.67 27 17.639 27 14.415c0-3.751-1.699-7.225-4.66-9.528L19.915 3h24.171L41.66 4.886C38.699 7.19 37 10.663 37 14.415c0 3.224 1.256 6.255 3.536 8.535l3.05 3.05h-0.082c-4.125 0-8.076 1.198-11.504 3.449C28.573 27.198 24.622 26 20.496 26h-0.082L23.464 22.95zM18.271 28.143L18.414 28h2.082c3.455 0 6.777 0.926 9.711 2.677C27.038 32.844 23.351 34 19.496 34h-5.143C15.246 31.836 16.566 29.848 18.271 28.143zM14.468 48h3.125c4 0 7.899 1.135 11.274 3.283l0.19 0.121c0.072 0.046 0.147 0.084 0.219 0.129C26.841 52.492 24.242 53 21.594 53h-3.889C16.344 51.514 15.255 49.825 14.468 48zM19.85 55h1.744c3.448 0 6.822-0.781 9.906-2.255C34.585 54.219 37.958 55 41.406 55h2.744l-7.5 6H27.35L19.85 55z" fill="#000000" data-fill-palette-color="quaternary"></path></svg></g></svg></g></svg></g></svg></g><g></g></svg></g><defs></defs></svg><rect width="247.45939378205193" height="247.2" fill="none" stroke="none" visibility="hidden"></rect></g></svg></g></svg>